<?xml version="1.0" standalone="no"?><!DOCTYPE svg PUBLIC "-//W3C//DTD SVG 1.1//EN" "http://www.w3.org/Graphics/SVG/1.1/DTD/svg11.dtd"><svg class="icon" width="200px" height="200.00px" viewBox="0 0 1024 1024" version="1.1" xmlns="http://www.w3.org/2000/svg"><path d="M728.001992 0l-176.502599 360.990554c-14.178692 28.664802-25.680603 55.515091-34.520729 80.61835l-2.669283 0c-12.386674-31.349081-23.446203-57.11966-33.088614-77.364223L305.26552 0 157.307754 0l251.504957 467.334495L203.052969 467.334495l0 103.194787 244.284396 0 0 143.413986L203.052969 713.943267l0 103.764634 244.284396 0 0 206.284601 129.317771 0 0-206.284601 236.966362 0L813.621498 713.943267 576.655137 713.943267 576.655137 570.529282l236.966362 0L813.621498 467.334495 611.880677 467.334495 866.684748 0 728.001992 0 728.001992 0z" fill="#ffffff" /></svg>