<?xml version="1.0" standalone="no"?><!DOCTYPE svg PUBLIC "-//W3C//DTD SVG 1.1//EN" "http://www.w3.org/Graphics/SVG/1.1/DTD/svg11.dtd"><svg t="1499239786884" class="icon" style="" viewBox="0 0 1024 1024" version="1.1" xmlns="http://www.w3.org/2000/svg" p-id="1036" xmlns:xlink="http://www.w3.org/1999/xlink" width="200" height="200"><defs><style type="text/css"></style></defs><path d="M1005.037037 1017.679012H18.962963c-6.953086 0-12.641975-5.688889-12.641975-12.641975V18.962963c0-6.953086 5.688889-12.641975 12.641975-12.641975h986.074074c6.953086 0 12.641975 5.688889 12.641975 12.641975v986.074074c0 6.953086-5.688889 12.641975-12.641975 12.641975z" fill="#F54335" p-id="1037"></path><path d="M748.404938 594.804938c-58.153086-29.708642-145.382716-20.22716-145.382716-20.22716S574.577778 546.133333 549.925926 518.320988c-24.651852-27.812346-41.718519-67.634568-41.718519-67.634568 59.417284-170.034568 18.330864-202.903704-16.434567-199.111111-27.812346 3.160494-54.992593 35.397531-51.832099 80.908642 3.160494 46.14321 38.558025 127.051852 38.558024 127.051851S461.432099 506.94321 443.101235 543.604938c-18.330864 36.661728-53.728395 79.012346-53.728395 79.012346s-87.22963 17.698765-127.051852 63.841975c-46.775309 53.096296-6.320988 97.975309 46.14321 80.908642 51.832099-17.066667 106.192593-121.362963 106.192592-121.362963s51.2-20.859259 95.446914-27.812345c46.775309-7.585185 75.219753-8.217284 75.219753-8.217284s46.14321 80.276543 121.362963 97.34321c74.587654 18.330864 104.928395-79.644444 41.718518-112.513581zM328.691358 717.432099c-13.906173 16.434568-36.661728 28.444444-47.407407 22.123457-6.320988-3.792593-3.160494-20.22716 17.066666-39.190124 20.859259-19.595062 66.37037-32.869136 66.370371-32.869136s-24.651852 36.02963-36.02963 49.935803z m140.325926-389.37284c-1.896296-41.718519 24.651852-42.982716 24.651852-42.982716 25.283951 6.953086 15.17037 54.360494 14.538271 70.162963-0.632099 15.802469-17.698765 56.888889-17.698765 56.888889s-20.22716-55.624691-21.491358-84.069136z m32.237037 261.688889c-17.698765 3.792593-63.209877 15.17037-63.209877 15.170371s15.17037-17.698765 32.237037-48.671605c17.066667-30.97284 25.283951-61.31358 25.283951-61.313581s24.019753 39.190123 32.869136 51.2c8.849383 12.009877 30.97284 36.661728 30.972839 36.661729-10.745679 0.632099-37.925926 3.160494-58.153086 6.953086z m243.990123 67.634568c-5.688889 16.434568-32.237037 20.22716-47.407407 8.217284-17.066667-13.274074-64.474074-58.785185-64.474074-58.785185s24.019753 1.264198 48.671605 3.160494c23.387654 3.160494 72.691358 18.962963 63.209876 47.407407z" fill="#FFFFFF" p-id="1038"></path></svg>