<?xml version="1.0" standalone="no"?><!DOCTYPE svg PUBLIC "-//W3C//DTD SVG 1.1//EN" "http://www.w3.org/Graphics/SVG/1.1/DTD/svg11.dtd"><svg class="icon" width="200px" height="200.00px" viewBox="0 0 1024 1024" version="1.1" xmlns="http://www.w3.org/2000/svg"><path d="M443.733333 629.76c-11.946667 0-25.6-5.12-35.84-15.36-90.453333-90.453333-90.453333-238.933333 0-329.386667L592.213333 102.4c44.373333-44.373333 102.4-68.266667 165.546667-68.266667 61.44 0 119.466667 23.893333 163.84 68.266667 90.453333 90.453333 90.453333 238.933333 0 329.386667l-83.626667 83.626666c-18.773333 18.773333-51.2 18.773333-69.973333 0-18.773333-18.773333-18.773333-51.2 0-69.973333l83.626667-83.626667c52.906667-52.906667 52.906667-136.533333 0-189.44-25.6-25.6-59.733333-39.253333-93.866667-39.253333-35.84 0-69.973333 13.653333-93.866667 39.253333L477.866667 356.693333c-52.906667 52.906667-52.906667 136.533333 0 189.44 18.773333 18.773333 18.773333 51.2 0 69.973334-8.533333 8.533333-22.186667 13.653333-34.133334 13.653333z" fill="#707070" /><path d="M267.946667 989.866667C204.8 989.866667 146.773333 965.973333 102.4 921.6 11.946667 831.146667 11.946667 682.666667 102.4 592.213333l83.626667-83.626666c18.773333-18.773333 51.2-18.773333 69.973333 0 18.773333 18.773333 18.773333 51.2 0 69.973333l-83.626667 83.626667c-52.906667 52.906667-52.906667 136.533333 0 189.44 25.6 25.6 59.733333 39.253333 93.866667 39.253333s69.973333-13.653333 93.866667-39.253333L546.133333 667.306667c52.906667-52.906667 52.906667-136.533333 0-189.44-18.773333-18.773333-18.773333-51.2 0-69.973334 18.773333-18.773333 51.2-18.773333 69.973334 0 90.453333 90.453333 90.453333 238.933333 0 329.386667L431.786667 921.6c-44.373333 44.373333-102.4 68.266667-163.84 68.266667z" fill="#707070" /></svg>