<?xml version="1.0" standalone="no"?><!DOCTYPE svg PUBLIC "-//W3C//DTD SVG 1.1//EN" "http://www.w3.org/Graphics/SVG/1.1/DTD/svg11.dtd"><svg class="icon" width="200px" height="200.00px" viewBox="0 0 1024 1024" version="1.1" xmlns="http://www.w3.org/2000/svg"><path d="M298.408638 847.988186c-44.565583-0.450341-79.748459-1.804534-89.520116 59.992451-3.910089 55.031566 38.650941 62.417245 112.194035 75.780939 80.921248 4.191304 128.338202 15.337354 190.829514-46.460027l-211.939318-89.410799"  /><path d="M292.936415 849.342379c-23.063661 0-59.81382-0.903059-75.449025 40.596083 1.956233 4.962074 11.47123 2.776511 17.481724-1.452421 9.015543-4.270916 4.801266 1.676601-5.167242 9.683727-10.848199 7.554804-35.036327 32.139011 6.010493 57.342289 43.538947 20.12951 180.460174 57.00483 265.779084-15.054158 0 0-168.292637-52.325953-206.99388-91.117501l-1.661154 0.001981z" fill="#f0971c" /><path d="M752.087044 840.31733c44.565583-0.450738 79.748459-1.804534 89.522097 59.992451 3.910089 55.030774-60.216632 64.055822-112.194432 75.780544-55.573798 5.133576-128.340578 15.336958-190.829513-46.46082l211.939318-89.410006"  /><path d="M757.561644 841.671127c23.063661 0 59.811443-0.902663 75.446649 40.596083-1.953856 4.962074-11.47123 2.776908-17.481725-1.45242-9.015543-4.270916-4.80087 1.676601 5.167639 9.683331 10.848199 7.555201 35.036327 32.139407-6.010494 57.343081-43.539343 20.128718-180.460174 57.004434-265.779083-15.05495 0 0 168.292637-52.325953 206.993879-91.117105l1.663135 0.00198z" fill="#f0971c" /><path d="M808.955227 445.181331c47.691832 50.520626 77.402881 100.137797 100.85866 228.242708 3.186057 77.583889-7.038714 84.802027-29.711049 105.551004-16.419045-2.706406-33.618761-27.967115-50.818873-87.508829-17.202093-59.541714-20.328738-246.284883-20.328738-246.284883z"  /><path d="M829.283965 388.346023c0-14.150306-4.393305-27.809475-12.53391-40.694311-0.918506-173.007954-126.913903-312.946903-282.225457-312.946903-155.309575 0-281.306555 139.940138-282.225062 312.950864-8.136248 12.883251-12.529553 26.541231-12.529552 40.69035 0 20.678871 9.3431 40.313679 26.119407 58.000571 36.609947 126.522973 143.032324 218.055961 268.635207 218.055961 125.605655 0 232.025259-91.531007 268.637979-218.053188 16.775912-17.686893 26.121388-37.324473 26.121388-58.003344zM225.11032 446.083598c-47.691832 50.520626-77.402881 100.137797-100.858264 228.242312-3.185265 77.584285 24.092277 103.29692 29.711049 105.5514 5.618772 2.253292 33.618365-27.967115 50.820854-87.508828 17.199716-59.541318 20.326361-246.284883 20.326361-246.284884z"  /><path d="M844.91917 612.979662c0 186.840209-147.370178 338.30386-329.158799 338.30386s-329.156819-151.463651-329.156819-338.30386c0-186.838625 147.368197-338.302275 329.156819-338.302275s329.158799 151.463651 329.158799 338.302275z"  /><path d="M246.022877 682.445523a279.902852 252.599566 0 1 0 559.805705 0 279.902852 252.599566 0 1 0-559.805705 0Z" fill="#ffffff" /><path d="M256.774829 334.893622s-22.282594 18.268732-17.591438 56.15841c-23.455383 28.417456-19.350819 58.188313-8.795719 88.635672 17.591438 58.414078 136.432861 151.335717 288.111979 151.335718 207.969818-13.984349 268.953654-114.798649 315.278222-167.574547 0 0 26.973749-43.979387-17.591438-120.43564l-67.434373 6.766212-491.977233-14.885825z"  /><path d="M322.743315 567.646874c-2.931774 30.786007-14.073071 130.246905 3.518367 154.943202 18.764227 24.358046 41.340315 36.199214 89.423869 28.756103 21.696001-7.104463 26.387157-27.740954 24.334677-57.51181-0.293098-29.43221-0.879691-85.928871-0.879691-85.928871l-116.397222-40.258624z"  /><path d="M248.565702 380.903308s77.402881 133.96846 252.14566 140.734276c77.402881 1.353401 155.978551 8.119217 272.082675-81.192562 22.86879-23.681543 26.973749-31.124258 26.97375-31.124257s7.623326 60.895115-104.962828 137.350971c0 0 76.816289 0.676502 131.936577-158.326109 0 0 26.973749 103.521101-67.434374 152.913298-86.784797 52.098603-143.664466 86.605769-287.915127 78.486553-94.778852-23.559551-236.313207-60.894718-246.281715-179.300852 0 0 5.863945-27.74135 13.486875-22.328539 0 0 0.586196 64.278022 49.256343 85.929267 0 0.000396-48.670147-72.396447-39.287836-123.142046z" fill="#e71f19" /><path d="M339.569925 583.232966s-33.716989 128.555649 4.104563 150.206893c38.408144 17.930085 61.863527 13.193776 87.664488 4.398057 10.848199-14.885428 1.172789-103.859352 4.398057-112.993322-5.863945-3.721555-23.162284-7.781361-26.094058-7.781361 0 0-2.638676 37.890073-0.293099 60.894718-4.691156-17.930085-8.209523-17.930085-8.209522-66.307529-28.146538-9.810869-61.570429-28.417456-61.570429-28.417456z" fill="#e71f19" /><path d="M511.912071 260.241111c0 47.083851-20.91731 85.252368-46.715895 85.252369s-46.71629-38.168517-46.71629-85.252369c0-47.083851 20.917707-85.252764 46.71629-85.252764s46.715894 38.168517 46.715895 85.252764zM649.126395 260.241111c0 47.083851-20.917707 85.252368-46.71629 85.252369s-46.715894-38.168517-46.715895-85.252369c0-47.083851 20.917707-85.252764 46.715895-85.252764 25.798584 0 46.71629 38.168517 46.71629 85.252764z" fill="#ffffff" /><path d="M505.599369 261.143775c0 18.18516-7.877213 32.927604-17.593815 32.927603-9.714225 0-17.591438-14.742444-17.591438-32.927603 0-18.185556 7.877213-32.928 17.591438-32.928 9.716602 0 17.593814 14.742444 17.593815 32.928zM575.182073 270.954247c-1.672244-16.974743 8.062577-41.272981 27.120298-35.014542 13.830275 6.258439 13.046831 30.278234 12.753733 36.367547-0.293098 6.089709-8.356072 10.318245-12.020987 0-1.758985-9.641743-9.382311-38.735701-15.979002-2.199029-2.198633 8.451131-11.140901 8.288738-11.874042 0.846024z"  /><path d="M670.501969 368.203442c-34.447754-14.532126-83.218504-23.612626-137.344635-23.612626-52.909773 0-100.695475 8.679668-134.989947 22.643818-28.44637 11.583321-53.629051 32.163172-52.653113 43.752433 2.934151 11.641148 12.220215 19.188427 63.428037 27.089801-18.17803-17.59223-14.155455-13.58233-14.155455-40.487161 0 26.904832 21.852056 40.626977 57.085234 55.28664 23.123073 9.621543 51.528646 15.309233 82.263558 15.309233 32.255854 0 61.950664-6.262796 85.657953-16.767198 33.304671-14.753138 49.407645-26.667977 49.407645-52.697475 0 26.029498 5.373599 17.70432-16.029303 39.355961 49.650441-8.72997 65.286043-18.381219 66.541216-30.256053-0.000792-10.453308-23.799971-28.898692-49.21119-39.617373z" fill="#f0971c" /></svg>