<?xml version="1.0" standalone="no"?><!DOCTYPE svg PUBLIC "-//W3C//DTD SVG 1.1//EN" "http://www.w3.org/Graphics/SVG/1.1/DTD/svg11.dtd"><svg class="icon" width="200px" height="200.00px" viewBox="0 0 1024 1024" version="1.1" xmlns="http://www.w3.org/2000/svg"><path d="M523.5 762.7h-336l222.3-222.3 11.4 11.4c18 18 41.8 27.8 67.2 27.8s49.3-9.9 67.2-27.8L818 289.4v139.7c0 23.6 19.2 42.8 42.8 42.8 23.6 0 42.8-19.2 42.8-42.8V253.7c0-52.9-42.2-95.9-94.2-95.9H158.2c-51.9 0-94.2 43-94.2 95.9v498.7c0 52.9 42.2 95.9 94.2 95.9h365.3c23.6 0 42.8-19.2 42.8-42.8 0-23.6-19.2-42.8-42.8-42.8z m-373.9-83.1V280.2l199.7 199.7-199.7 199.7z m345.5-188.3c-3.7 3.7-9.7 3.7-13.4 0l-247.9-248h509.3l-248 248z" fill="#ffbd4e" /><path d="M941.6 641.6L825.8 516.7c-16.1-17.3-43.1-18.4-60.5-2.3-17.3 16.1-18.4 43.1-2.3 60.5l62.8 67.8H610.7c-21.9 0-39.6 17.7-39.6 39.6s17.7 39.6 39.6 39.6h219.9l-75.7 70.2c-17.3 16.1-18.4 43.1-2.3 60.5 8.4 9.1 19.9 13.7 31.4 13.7 10.4 0 20.8-3.8 29.1-11.4L938 739.1c13.5-12.5 21.3-29.5 22-47.9 0.6-18.5-5.9-36.1-18.4-49.6z" fill="#ffbd4e" /></svg>