<?xml version="1.0" encoding="utf-8"?>
<!-- Generator: Adobe Illustrator 19.2.0, SVG Export Plug-In . SVG Version: 6.00 Build 0)  -->
<svg version="1.1" id="图层_1" xmlns="http://www.w3.org/2000/svg" xmlns:xlink="http://www.w3.org/1999/xlink" x="0px" y="0px"
	 viewBox="0 0 116.2 52.5" style="enable-background:new 0 0 116.2 52.5;" xml:space="preserve">
<style type="text/css">
	.st0{fill-rule:evenodd;clip-rule:evenodd;fill:none;stroke:#FFFFFF;stroke-width:2;stroke-miterlimit:10;}
	.st1{fill:#FFFFFF;}
	.st2{fill:#8E4949;}
</style>
<path class="st0" d="M95.1,30.8H20.7c-7.1,0-13-5.8-13-13v0c0-7.1,5.8-13,13-13h74.4c7.1,0,13,5.8,13,13v0
	C108.1,24.9,102.3,30.8,95.1,30.8z"/>
<path class="st1" d="M105.2,34.2c-0.5,0-1-0.4-1-1v-3.7c0-0.7-0.7-1.3-1.5-1.3c-0.8,0-1.4,0.6-1.4,1.3v2.2c0,0.5-0.4,1-1,1
	c-0.5,0-1-0.4-1-1v-2.2c0-1.8,1.5-3.2,3.3-3.2c1.8,0,3.4,1.5,3.4,3.2v3.7C106.2,33.8,105.7,34.2,105.2,34.2z M109.9,34.9
	c-0.5,0-1-0.4-1-1v-3c0-0.7-0.7-1.3-1.5-1.3c-0.7,0-1.3,0.5-1.3,1.3v2.2c0,0.5-0.4,1-1,1c-0.5,0-1-0.4-1-1V31c0-1.8,1.4-3.2,3.2-3.2
	c1.9,0,3.4,1.5,3.4,3.2v3C110.9,34.5,110.4,34.9,109.9,34.9z M95.8,38.7c-0.5,0-1-0.4-1-1v-17c0-1.8,1.5-3.2,3.3-3.2
	c1.8,0,3.3,1.4,3.3,3.2v11.1c0,0.5-0.4,1-1,1c-0.5,0-1-0.4-1-1V20.7c0-0.7-0.6-1.3-1.4-1.3s-1.4,0.6-1.4,1.3v17
	C96.8,38.2,96.3,38.7,95.8,38.7L95.8,38.7z M96.7,47.6c-0.4,0-0.7-0.2-0.9-0.6c-0.6-1.3-1.7-2.3-1.7-2.3c-3.7-4.1-6.6-11.8-6.7-12.1
	c-0.6-1.6,0.1-2.9,1.2-3.4c1.3-0.7,2.8-0.3,3.5,0.8l4.5,7.3c0.3,0.5,0.1,1-0.3,1.3c-0.5,0.3-1,0.1-1.3-0.3l-4.5-7.3
	c-0.2-0.3-0.7-0.3-1-0.1c-0.4,0.2-0.5,0.5-0.3,1c0,0.1,2.9,7.7,6.2,11.5c0,0,1.3,1.2,2.1,2.9c0.2,0.5,0,1.1-0.5,1.3
	C96.9,47.5,96.8,47.6,96.7,47.6L96.7,47.6z M109.9,47.6c-0.1,0-0.1,0-0.2,0c-0.5-0.1-0.9-0.6-0.8-1.1c0.2-1.3,0.8-3.4,2-5.7
	c1.5-2.9,2-6.7,2-6.8c0-0.5-0.2-1.2-0.9-1.2c-0.7,0-1.2,0.5-1.2,1.3c0,0.5-0.4,1-1,1s-1-0.4-1-1c0-1.8,1.3-3.2,3.1-3.2
	c1.7,0,2.8,1.3,2.8,3.3c0,0.3-0.5,4.4-2.2,7.6c-1.1,2.1-1.6,3.9-1.8,5.2C110.8,47.2,110.4,47.6,109.9,47.6L109.9,47.6z M109.9,35.7
	c-0.5,0-1-0.4-1-1V34c0-0.5,0.4-1,1-1c0.5,0,1,0.4,1,1v0.7C110.9,35.3,110.4,35.7,109.9,35.7z M106.2,21.6c-0.5,0-1-0.4-1-1
	c0-3.9-3.2-7.1-7.1-7.1c-3.9,0-7.1,3.2-7.1,7.1c0,0.5-0.4,1-1,1c-0.5,0-1-0.4-1-1c0-5,4.1-9,9-9c5,0,9,4.1,9,9
	C107.2,21.2,106.7,21.6,106.2,21.6L106.2,21.6z"/>
<g>
	<path class="st1" d="M29,16.9h13.3v0.8H29V16.9z"/>
	<path class="st1" d="M43.3,16c-0.1-0.2-0.3-0.3-0.4-0.5c0.7-1.2,1.3-2.6,1.7-4.3l0.7,0.1c-0.2,0.8-0.4,1.5-0.6,2h1.9v0.6h-2.2
		C44.1,14.6,43.8,15.3,43.3,16z M43.1,18h1.5v-1.8h-0.7v-0.6h2.6v0.6h-1.2V18h1.6v0.6h-1.6v3.5c0.5-0.4,0.9-0.9,1.4-1.4
		c0.1,0.3,0.2,0.5,0.3,0.6c-0.4,0.4-1,0.9-1.7,1.6c-0.1,0.1-0.3,0.3-0.5,0.5l-0.5-0.5c0.2-0.3,0.3-0.5,0.3-0.8v-3.7h-1.5V18z
		 M52.4,23.7c-2-0.1-3.4-0.6-4.1-1.5c-0.3,0.6-0.8,1.3-1.5,2.1c-0.1-0.1-0.3-0.3-0.5-0.5c0.8-0.9,1.3-1.6,1.6-2.2
		c-0.4-0.6-0.7-1.6-1-2.7l0.6-0.2c0.2,0.9,0.5,1.6,0.7,2.2c0.3-0.8,0.5-1.9,0.6-3.5h-1.8v-0.7L49,13h-2v-0.6h2.6v0.7l-1.9,3.6h1.7
		v0.6c-0.1,1.8-0.4,3.2-0.8,4.2c0.6,1,1.9,1.6,3.9,1.6c0.7,0,1.4,0,2.1,0c0.4,0,1,0,1.6,0c-0.1,0.2-0.2,0.5-0.3,0.7
		C54.6,23.8,53.4,23.8,52.4,23.7z M50.4,13.1v-0.6h1.8v-1.4h0.7v1.4h2.4v1.9h0.9V15h-0.9v2h-2.4v1.4h2.6v0.6h-2.6v1.4h2.9v0.6h-2.9
		v1.5h-0.7v-1.5h-2.4v-0.6h2.4v-1.4h-2.1v-0.6h2.1v-1.4h-1.8v-0.6h1.8V15h-2.5v-0.6h2.5v-1.3H50.4z M54.6,13.1h-1.8v1.3h1.8V13.1z
		 M52.9,15v1.4h1.8V15H52.9z"/>
	<path class="st1" d="M59.3,17.4c-0.8-0.7-1.5-1.2-2.2-1.7l0.5-0.5c0.7,0.5,1.4,1,2.3,1.7L59.3,17.4z M57.5,23.9
		c0.6-1.5,1.2-3.2,1.7-4.9c0.2,0.1,0.5,0.2,0.7,0.3c-0.4,1.2-1,2.8-1.7,4.9L57.5,23.9z M60,13.9c-0.7-0.6-1.5-1.2-2.3-1.8l0.5-0.5
		c0.8,0.5,1.5,1.1,2.3,1.8L60,13.9z M61.4,17.9h3.6v-3.6h-4v-0.7h4.4c-0.1-0.2-0.3-0.8-0.7-1.7c-0.1-0.3-0.2-0.4-0.2-0.6l0.7-0.2
		c0.3,0.6,0.6,1.3,1,2.2l-0.7,0.2h4.3v0.7h-4.1v3.6h3.7v0.7h-3.7v4.2h4.5v0.7H60.2v-0.7h4.9v-4.2h-3.6V17.9z"/>
	<path class="st1" d="M71.1,16.7h1.6v-4.9h4.1v4.9h1.8v-4.9h4.3v4.9h1.5v0.7h-1.5v5.2c0,0.9-0.4,1.4-1.4,1.4c-0.2,0-0.4,0-0.6,0
		c-0.1,0-0.2,0-0.3,0c-0.1,0-0.3,0-0.5,0c0-0.2-0.1-0.5-0.1-0.8c0,0,0.1,0,0.2,0c0.5,0,0.9,0,1.2,0c0.3,0,0.6-0.1,0.7-0.2
		c0.1-0.1,0.2-0.3,0.2-0.7v-5.1h-2.8c0,1.8-0.1,3.2-0.3,4.1c-0.2,0.9-0.6,1.8-1.2,2.8c-0.1-0.1-0.4-0.3-0.7-0.4
		c0.6-0.9,1-1.8,1.2-2.6c0.2-0.8,0.3-2.1,0.3-3.8h-1.8v4.9c0,0.9-0.4,1.3-1.2,1.3c-0.1,0-0.3,0-0.5,0c-0.1,0-0.2,0-0.3,0
		c-0.1,0-0.3,0-0.5,0c0-0.2-0.1-0.5-0.1-0.7c0.1,0,0.3,0,0.4,0c0.1,0,0.2,0,0.3,0c0.1,0,0.2,0,0.4,0c0.3,0,0.5-0.1,0.6-0.2
		c0.1-0.1,0.2-0.3,0.2-0.6v-4.8h-2.7c0,1.8-0.1,3.1-0.3,4c-0.2,0.9-0.5,1.8-1.1,2.8c-0.1-0.1-0.3-0.2-0.5-0.3
		c-0.1-0.1-0.2-0.1-0.2-0.1c0.6-0.9,0.9-1.8,1.1-2.6c0.2-0.8,0.3-2.1,0.3-3.8h-1.6V16.7z M73.4,12.5v4.2h2.7v-4.2H73.4z M79.4,12.5
		v4.2h2.8v-4.2H79.4z"/>
</g>
<path class="st2" d="M61.3-26.9L61.3-26.9c-1.7,0-3.1-1.4-3.1-3.1v0c0-1.7,1.4-3.1,3.1-3.1h0c1.7,0,3.1,1.4,3.1,3.1v0
	C64.4-28.3,63-26.9,61.3-26.9z"/>
</svg>
