<svg id="图层_1" data-name="图层 1" xmlns="http://www.w3.org/2000/svg" viewBox="0 0 200 200"><defs><style>.cls-1{fill:#e5e5e4;}.cls-2{fill:#fff;}</style></defs><title>picframe</title><rect class="cls-1" width="200" height="200"/><path class="cls-2" d="M92,102.7a8,8,0,1,0,8-8A8,8,0,0,0,92,102.7Zm25.1-13.47h-8.57c-.61-2.45-1.22-4.9-3.67-4.9H95.1c-2.45,0-3.06,2.45-3.67,4.9H82.86a2.46,2.46,0,0,0-2.45,2.45v22a2.46,2.46,0,0,0,2.45,2.45h34.28a2.46,2.46,0,0,0,2.45-2.45v-22A2.46,2.46,0,0,0,117.14,89.23ZM100,113.56a10.87,10.87,0,1,1,10.87-10.87A10.87,10.87,0,0,1,100,113.56Zm17.14-17h-4.9V94.13h4.9Z"/><path class="cls-2" d="M92,102.7a8,8,0,1,0,8-8A8,8,0,0,0,92,102.7Zm25.1-13.47h-8.57c-.61-2.45-1.22-4.9-3.67-4.9H95.1c-2.45,0-3.06,2.45-3.67,4.9H82.86a2.46,2.46,0,0,0-2.45,2.45v22a2.46,2.46,0,0,0,2.45,2.45h34.28a2.46,2.46,0,0,0,2.45-2.45v-22A2.46,2.46,0,0,0,117.14,89.23ZM100,113.56a10.87,10.87,0,1,1,10.87-10.87A10.87,10.87,0,0,1,100,113.56Zm17.14-17h-4.9V94.13h4.9Z"/></svg>